<svg width="463" height="119" viewBox="0 0 463 119" fill="none" xmlns="http://www.w3.org/2000/svg">
<path d="M36.7708 87.7059C34.2264 87.7059 31.764 87.3765 29.4659 86.8C27.1677 86.2235 25.1158 85.3177 23.31 84.1647C21.5043 83.0118 20.0269 81.6941 18.8779 80.2118C17.7288 78.6471 16.908 77 16.5797 75.1882L20.8477 74.2824L19.2062 86.7177H0.0820827V8.97648H21.4223V44.3059L16.7438 42.8235C17.1542 40.9294 17.975 39.2 19.2062 37.5529C20.4373 35.9059 21.9147 34.5059 23.6384 33.2706C25.362 32.0353 27.3319 31.1294 29.4659 30.4706C31.5999 29.8118 33.8981 29.4824 36.2783 29.4824C41.0388 29.4824 45.2248 30.7176 48.9183 33.2706C52.6118 35.8235 55.4845 39.2824 57.5364 43.6471C59.6705 48.0941 60.6554 53.1176 60.6554 58.8C60.6554 64.4823 59.5884 69.5882 57.5364 73.953C55.4845 78.3177 52.6118 81.7765 49.0824 84.2471C45.471 86.7177 41.3671 87.953 36.7708 87.953V87.7059ZM30.3687 70.3294C32.4207 70.3294 34.0622 69.8353 35.5396 68.9294C36.9349 68.0235 38.0019 66.6235 38.7407 64.8941C39.4793 63.1647 39.8077 61.0235 39.8077 58.4706C39.8077 55.9176 39.4793 53.7765 38.7407 52.0471C38.0019 50.2353 36.9349 48.9177 35.5396 48.0118C34.1443 47.1059 32.4207 46.6118 30.3687 46.6118C28.3168 46.6118 26.5932 47.1059 25.1978 48.0118C23.8025 48.9177 22.6534 50.2353 21.9147 52.0471C21.176 53.8588 20.8477 56 20.8477 58.4706C20.8477 60.9412 21.176 63.1647 21.9147 64.8941C22.6534 66.6235 23.7204 68.0235 25.1978 68.9294C26.5932 69.8353 28.3168 70.3294 30.3687 70.3294Z" fill="white"/>
<path d="M84.3758 87.4588C79.6974 87.4588 75.5114 86.2235 71.9 83.753C68.2886 81.2824 65.4159 77.8235 63.2819 73.4588C61.1479 69.0941 60.1629 64.0706 60.1629 58.3882C60.1629 52.7059 61.2299 47.6 63.2819 43.2353C65.3338 38.8706 68.2065 35.4118 71.9 32.9412C75.5935 30.4706 79.7795 29.2353 84.6221 29.2353C89.4646 29.2353 89.4646 29.5647 91.5166 30.3059C93.6506 31.0471 95.4563 31.9529 97.0979 33.2706C98.7394 34.5059 100.135 35.9882 101.284 37.6353C102.433 39.2824 103.5 41.0118 104.321 42.9059H100.053V30.3882H120.9V86.6353H99.5602V72.8824L104.239 73.2941C103.5 75.3529 102.597 77.2471 101.366 78.9765C100.135 80.7059 98.6573 82.2706 97.0158 83.5059C95.3742 84.7412 93.4865 85.7294 91.3524 86.4706C89.2184 87.2118 86.9202 87.5412 84.4579 87.5412L84.3758 87.4588ZM90.4496 70.1647C92.5015 70.1647 94.2251 69.6706 95.6205 68.7647C97.0158 67.8588 98.1649 66.5412 98.9036 64.8118C99.6423 63.0824 99.9706 60.9412 99.9706 58.3882C99.9706 55.8353 99.6423 53.6941 98.9036 51.9647C98.1649 50.1529 97.0979 48.8353 95.6205 47.9294C94.2251 47.0235 92.5015 46.5294 90.4496 46.5294C88.3976 46.5294 86.674 47.0235 85.2787 47.9294C83.8834 48.8353 82.8164 50.1529 82.0777 51.9647C81.339 53.7765 81.0106 55.9176 81.0106 58.3882C81.0106 60.8588 81.339 63.0824 82.0777 64.8118C82.8164 66.5412 83.8834 67.8588 85.2787 68.7647C86.674 69.6706 88.3976 70.1647 90.4496 70.1647Z" fill="white"/>
<path d="M128.78 86.5529V30.3059H148.478L149.545 41.6706L145.031 42.9059C145.77 40.2706 147.165 37.8824 149.135 35.8235C151.105 33.7647 153.485 32.1177 156.276 30.9647C159.066 29.8118 162.021 29.1529 165.14 29.1529C168.259 29.1529 172.856 30.0588 175.81 31.7882C178.765 33.5177 180.981 36.1529 182.459 39.5294C183.936 42.9059 184.675 47.0235 184.675 51.8824V86.5529H163.417V53.6941C163.417 52.1294 163.17 50.8941 162.678 49.8235C162.185 48.7529 161.447 47.9294 160.462 47.4353C159.477 46.9412 158.328 46.6118 157.015 46.6118C155.701 46.6118 155.045 46.7765 154.142 47.1059C153.239 47.4353 152.5 47.9294 151.926 48.5059C151.269 49.1647 150.777 49.8235 150.448 50.6471C150.12 51.3882 149.956 52.2941 149.956 53.2824V86.7177H128.698L128.78 86.5529Z" fill="white"/>
<path d="M211.432 87.7059C206.836 87.7059 202.732 86.4706 199.12 84C195.509 81.5294 192.718 78.0706 190.666 73.7059C188.614 69.3412 187.547 64.2353 187.547 58.5529C187.547 52.8706 188.614 47.8471 190.666 43.4C192.8 38.953 195.673 35.4941 199.285 33.0235C202.978 30.4706 207.164 29.2353 211.925 29.2353C216.685 29.2353 216.603 29.5647 218.737 30.2235C220.871 30.8824 222.841 31.8706 224.564 33.0235C226.288 34.2588 227.765 35.6588 228.997 37.3059C230.228 38.953 231.049 40.6824 231.459 42.5765L226.781 44.0588V8.72942H248.121V86.4706H228.997L227.355 74.0353L231.623 74.9412C231.295 76.7529 230.474 78.4824 229.325 79.9647C228.176 81.5294 226.616 82.8471 224.893 83.9176C223.087 85.0706 221.035 85.8941 218.737 86.5529C216.439 87.2118 213.976 87.4588 211.432 87.4588V87.7059ZM217.834 70.3294C219.886 70.3294 221.61 69.8353 223.005 68.9294C224.4 68.0235 225.549 66.6235 226.288 64.8941C227.027 63.1647 227.355 61.0235 227.355 58.4706C227.355 55.9176 227.027 53.7765 226.288 52.0471C225.549 50.2353 224.482 48.9177 223.005 48.0118C221.61 47.1059 219.886 46.6118 217.834 46.6118C215.782 46.6118 214.059 47.1059 212.663 48.0118C211.268 48.9177 210.201 50.2353 209.462 52.0471C208.723 53.8588 208.395 56 208.395 58.4706C208.395 60.9412 208.723 63.1647 209.462 64.8941C210.201 66.6235 211.268 68.0235 212.663 68.9294C214.059 69.8353 215.782 70.3294 217.834 70.3294Z" fill="white"/>
<path d="M282.183 87.6235C275.699 87.6235 270.118 86.3883 265.439 83.8353C260.761 81.2824 257.149 77.8235 254.687 73.4588C252.143 69.0941 250.911 64.0706 250.911 58.3882C250.911 52.7059 251.65 50.3177 253.045 46.6941C254.441 43.153 256.411 40.0235 258.955 37.3882C261.499 34.7529 264.536 32.6941 267.984 31.2941C271.431 29.8941 275.206 29.1529 279.31 29.1529C283.414 29.1529 287.19 29.8941 290.555 31.2941C293.92 32.6941 296.875 34.7529 299.337 37.3882C301.8 40.0235 303.687 43.153 304.918 46.6941C306.232 50.2353 306.806 54.1882 306.642 58.3882V62.8353H262.648L260.268 52.8706H289.652L287.682 55.0118V53.1176C287.682 51.8 287.354 50.6471 286.697 49.5765C286.041 48.5882 285.138 47.7647 283.907 47.1883C282.758 46.6118 281.362 46.3647 279.721 46.3647C278.079 46.3647 275.945 46.7765 274.55 47.6C273.154 48.4235 272.087 49.6588 271.349 51.1412C270.61 52.7059 270.282 54.5176 270.282 56.7412C270.282 58.9647 270.856 61.4353 271.923 63.3294C272.99 65.2235 274.632 66.7059 276.766 67.7765C278.9 68.8471 281.526 69.3412 284.645 69.3412C287.764 69.3412 288.503 69.0941 290.062 68.5177C291.54 68.0235 293.181 67.1177 294.823 65.9647L304.59 79.7177C302.046 81.7765 299.501 83.3412 297.039 84.4118C294.577 85.5647 292.114 86.3059 289.734 86.8C287.354 87.2941 284.892 87.5412 282.347 87.5412L282.183 87.6235Z" fill="white"/>
<path d="M305.821 114.471H297.778V98C301.307 98 304.016 97.6706 305.903 96.9294C307.791 96.1882 309.022 94.7882 309.679 92.8118C310.336 90.8353 310.664 84.9059 310.664 81.0353V30.3882H331.922V86.0588C331.922 92.3176 330.937 100.306 329.049 104.012C327.162 107.718 324.207 110.435 320.431 112.082C316.574 113.729 311.731 114.553 305.903 114.553L305.821 114.471ZM321.58 20.1765C317.805 20.1765 314.85 19.2706 312.716 17.5412C310.582 15.8118 309.515 13.3412 309.515 10.0471C309.515 6.75295 310.582 4.69413 312.798 2.80001C314.932 0.90589 317.887 0 321.58 0C325.274 0 328.311 0.905892 330.445 2.6353C332.579 4.36472 333.646 6.8353 333.646 10.1294C333.646 13.4235 332.579 15.4824 330.363 17.3765C328.229 19.2706 325.274 20.1765 321.58 20.1765Z" fill="white"/>
<path d="M359.993 87.4588C355.314 87.4588 351.128 86.2235 347.517 83.753C343.905 81.2824 341.033 77.8235 338.899 73.4588C336.765 69.0941 335.78 64.0706 335.78 58.3882C335.78 52.7059 336.847 47.6 338.899 43.2353C340.951 38.8706 343.823 35.4118 347.517 32.9412C351.21 30.4706 355.396 29.2353 360.239 29.2353C365.081 29.2353 365.081 29.5647 367.133 30.3059C369.267 31.0471 371.073 31.9529 372.715 33.2706C374.356 34.5059 375.751 35.9882 376.901 37.6353C378.05 39.2824 379.117 41.0118 379.937 42.9059H375.669V30.3882H396.517V86.6353H375.177V72.8824L379.855 73.2941C379.117 75.3529 378.214 77.2471 376.983 78.9765C375.751 80.7059 374.274 82.2706 372.633 83.5059C370.991 84.7412 369.103 85.7294 366.969 86.4706C364.835 87.2118 362.537 87.5412 360.075 87.5412L359.993 87.4588ZM376.736 22.1529C375.669 22.1529 374.438 21.9882 373.043 21.6588C371.648 21.3294 369.924 20.5059 367.872 19.1882C366.723 18.3647 365.656 17.7882 364.917 17.4588C364.096 17.1294 363.44 16.9647 362.947 16.9647C361.88 16.9647 360.978 17.2941 360.157 17.9529C359.336 18.6118 358.843 19.6824 358.761 21.1647L347.763 19.6824C347.763 15.3177 348.912 11.6941 351.128 8.72942C353.344 5.76471 356.381 4.28236 360.239 4.28236C364.096 4.28236 362.455 4.44707 363.85 4.69413C365.246 4.94119 366.887 5.76471 368.857 7C369.514 7.41176 370.252 7.90588 371.237 8.48236C372.14 9.05883 373.125 9.30589 374.028 9.30589C374.931 9.30589 375.916 8.97647 376.654 8.23529C377.393 7.57647 377.803 6.50589 377.886 5.10589L388.884 6.67059C388.884 9.30589 388.391 11.8588 387.407 14.2471C386.422 16.6353 384.944 18.5294 383.138 20.0118C381.333 21.4118 379.199 22.1529 376.818 22.1529H376.736ZM366.066 70.1647C368.118 70.1647 369.842 69.6706 371.237 68.7647C372.633 67.8588 373.782 66.5412 374.52 64.8118C375.259 63.0824 375.587 60.9412 375.587 58.3882C375.587 55.8353 375.259 53.6941 374.52 51.9647C373.782 50.1529 372.715 48.8353 371.237 47.9294C369.842 47.0235 368.118 46.5294 366.066 46.5294C364.014 46.5294 362.291 47.0235 360.895 47.9294C359.5 48.8353 358.433 50.1529 357.694 51.9647C356.956 53.7765 356.627 55.9176 356.627 58.3882C356.627 60.8588 356.956 63.0824 357.694 64.8118C358.433 66.5412 359.5 67.8588 360.895 68.7647C362.291 69.6706 364.014 70.1647 366.066 70.1647Z" fill="white"/>
<path d="M431.728 87.6235C425.655 87.6235 420.238 86.3883 415.477 83.8353C410.717 81.2824 407.023 77.8235 404.232 73.4588C401.524 69.0941 400.129 64.0706 400.129 58.3882C400.129 52.7059 401.524 47.6824 404.232 43.3177C406.941 38.9529 410.717 35.4941 415.477 32.9412C420.238 30.3882 425.655 29.1529 431.728 29.1529C437.802 29.1529 443.219 30.3882 447.898 32.9412C452.576 35.4941 456.27 38.9529 458.978 43.3177C461.687 47.6824 463 52.7059 463 58.3882C463 64.0706 461.687 69.0941 458.978 73.4588C456.27 77.8235 452.576 81.2824 447.898 83.8353C443.219 86.3883 437.802 87.6235 431.728 87.6235ZM431.728 69.753C433.616 69.753 435.34 69.2588 436.817 68.2706C438.295 67.2823 439.526 65.9647 440.347 64.2353C441.167 62.5059 441.578 60.6118 441.578 58.3882C441.578 56.1647 441.167 54.1882 440.347 52.4588C439.526 50.7294 438.377 49.4118 436.817 48.4235C435.34 47.4353 433.616 46.9412 431.728 46.9412C429.841 46.9412 428.035 47.4353 426.558 48.4235C425.08 49.4118 423.849 50.7294 423.028 52.4588C422.125 54.1882 421.715 56.1647 421.715 58.3882C421.715 60.6118 422.125 62.5059 423.028 64.2353C423.931 65.9647 425.08 67.2823 426.558 68.2706C428.035 69.2588 429.759 69.753 431.728 69.753Z" fill="white"/>
<path d="M291.211 98H0V114.471H291.211V98Z" fill="white"/>
<path d="M344.398 112.659L341.361 106.894V112.659H336.354V96.5177H343.823C345.137 96.5177 346.204 96.7647 347.188 97.1765C348.091 97.6706 348.83 98.2471 349.24 99.0706C349.733 99.8941 349.897 100.8 349.897 101.788C349.897 102.776 349.569 103.847 348.994 104.671C348.42 105.494 347.517 106.071 346.45 106.482L349.979 112.659H344.398ZM343.331 103.435C343.823 103.435 344.152 103.353 344.398 103.106C344.644 102.859 344.726 102.529 344.726 102.035C344.726 101.541 344.562 101.294 344.316 101.047C344.07 100.8 343.741 100.718 343.249 100.718H341.279V103.435H343.331Z" fill="white"/>
<path d="M357.202 100.553V102.529H362.209V106.318H357.202V108.624H362.865V112.659H352.113V96.5177H362.865V100.553H357.202Z" fill="white"/>
<path d="M376.818 96.5177V100.553H370.499V102.776H375.013V106.565H370.499V112.659H365.492V96.5177H376.818Z" fill="white"/>
<path d="M384.288 100.553V102.529H389.294V106.318H384.288V108.624H389.951V112.659H379.199V96.5177H389.951V100.553H384.288Z" fill="white"/>
<path d="M397.584 96.5177V112.659H392.577V96.5177H397.584Z" fill="white"/>
<path d="M409.485 107.635C409.896 107.306 410.306 106.894 410.552 106.4H415.887C415.559 108.047 414.903 109.447 413.836 110.6C412.769 111.671 411.291 112.412 409.65 112.659H409.732V113.4C410.142 113.4 410.634 113.482 411.045 113.647C411.537 113.812 411.866 114.141 412.194 114.553C412.522 114.965 412.686 115.541 412.686 116.2C412.686 117.188 412.358 117.929 411.701 118.341C411.045 118.753 410.224 119 409.321 119H405.382V116.447H408.829C408.993 116.447 409.157 116.447 409.239 116.365C409.321 116.365 409.403 116.2 409.403 116.118C409.403 115.871 409.239 115.788 408.829 115.788H406.859V112.741C405.464 112.576 404.315 112.082 403.33 111.341C402.345 110.6 401.524 109.694 401.031 108.541C400.539 107.388 400.211 106.071 400.211 104.588C400.211 103.106 400.539 101.541 401.196 100.306C401.852 99.0706 402.755 98.0824 403.986 97.4235C405.217 96.7647 406.613 96.3529 408.172 96.3529C409.732 96.3529 410.799 96.6 411.948 97.1765C413.015 97.6706 413.918 98.4118 414.656 99.4C415.313 100.388 415.805 101.459 416.052 102.776H410.717C410.47 102.282 410.142 101.871 409.65 101.541C409.239 101.212 408.665 101.129 408.09 101.129C407.269 101.129 406.613 101.459 406.12 102.118C405.628 102.776 405.382 103.6 405.382 104.671C405.382 105.741 405.628 106.647 406.12 107.224C406.613 107.8 407.269 108.212 408.09 108.212C408.911 108.212 409.157 108.047 409.65 107.8L409.485 107.635Z" fill="white"/>
<path d="M421.961 111.753C420.73 111.012 419.663 110.024 418.924 108.788C418.186 107.553 417.775 106.071 417.775 104.506C417.775 102.941 418.186 101.541 418.924 100.224C419.663 98.9882 420.648 98 421.961 97.2588C423.274 96.5177 424.588 96.1883 426.147 96.1883C427.707 96.1883 429.02 96.5177 430.333 97.2588C431.646 98 432.549 98.9882 433.288 100.224C434.027 101.459 434.355 102.941 434.355 104.506C434.355 106.071 434.027 107.471 433.288 108.788C432.549 110.106 431.564 111.012 430.251 111.753C428.938 112.494 427.625 112.824 426.147 112.824C424.67 112.824 423.274 112.494 421.961 111.753ZM422.125 92.4824C422.7 91.8235 423.521 91.5765 424.506 91.5765C425.491 91.5765 425.244 91.5765 425.491 91.7412C425.819 91.8235 426.147 91.9882 426.475 92.2353C426.722 92.4 426.968 92.4823 427.132 92.5647C427.296 92.5647 427.46 92.6471 427.625 92.6471C428.199 92.6471 428.527 92.3177 428.609 91.5765H431.072C430.826 92.9765 430.415 94.0471 429.759 94.6235C429.184 95.2823 428.363 95.5294 427.378 95.5294C426.393 95.5294 426.64 95.5294 426.393 95.3647C426.065 95.2824 425.737 95.1177 425.408 94.8706C425.162 94.7882 424.998 94.7059 424.752 94.6235C424.506 94.5412 424.341 94.4588 424.177 94.4588C423.603 94.4588 423.274 94.7882 423.192 95.5294H420.73C420.976 94.1294 421.387 93.0588 422.043 92.4824H422.125ZM428.445 107.141C429.02 106.482 429.266 105.659 429.266 104.506C429.266 103.353 429.02 102.529 428.445 101.871C427.871 101.212 427.132 100.882 426.147 100.882C425.162 100.882 424.341 101.212 423.767 101.871C423.192 102.529 422.946 103.435 422.946 104.506C422.946 105.576 423.192 106.482 423.767 107.141C424.341 107.8 425.08 108.129 426.147 108.129C427.214 108.129 427.953 107.8 428.445 107.141Z" fill="white"/>
<path d="M441.906 100.553V102.529H446.913V106.318H441.906V108.624H447.569V112.659H436.817V96.5177H447.569V100.553H441.906Z" fill="white"/>
<path d="M451.755 111.424C450.524 110.518 449.868 109.2 449.703 107.471H455.039C455.039 108.376 455.531 108.871 456.27 108.871C457.008 108.871 456.762 108.871 456.926 108.706C457.09 108.541 457.173 108.376 457.173 108.129C457.173 107.882 457.008 107.471 456.598 107.224C456.188 106.976 455.531 106.729 454.71 106.4C453.643 106.071 452.822 105.659 452.166 105.329C451.509 105 450.935 104.506 450.442 103.765C449.95 103.106 449.703 102.2 449.703 101.212C449.703 100.141 449.95 99.2353 450.524 98.4941C451.099 97.7529 451.755 97.1765 452.74 96.8471C453.643 96.4353 454.71 96.2706 455.859 96.2706C457.829 96.2706 459.389 96.7647 460.538 97.6706C461.687 98.5765 462.343 99.8941 462.343 101.541H456.926C456.926 101.047 456.762 100.718 456.598 100.553C456.434 100.388 456.106 100.224 455.859 100.224C455.613 100.224 455.449 100.224 455.367 100.471C455.285 100.718 455.203 100.8 455.203 101.047C455.203 101.294 455.367 101.706 455.777 101.953C456.188 102.2 456.844 102.447 457.665 102.776C458.65 103.188 459.553 103.518 460.209 103.847C460.866 104.176 461.441 104.671 461.933 105.329C462.425 105.988 462.672 106.729 462.672 107.718C462.672 108.706 462.425 109.612 461.933 110.353C461.441 111.094 460.784 111.753 459.799 112.165C458.814 112.576 457.747 112.824 456.516 112.824C454.628 112.824 452.987 112.412 451.755 111.506V111.424Z" fill="white"/>
</svg>
